<?xml version="1.0" standalone="no"?>
<!DOCTYPE svg PUBLIC "-//W3C//DTD SVG 20010904//EN"
 "http://www.w3.org/TR/2001/REC-SVG-20010904/DTD/svg10.dtd">
<svg version="1.0" xmlns="http://www.w3.org/2000/svg"
 width="1047.000000pt" height="377.000000pt" viewBox="0 0 1047.000000 377.000000"
 preserveAspectRatio="xMidYMid meet">

<g transform="translate(0.000000,377.000000) scale(0.100000,-0.100000)"
fill="#000000" stroke="none">
<path d="M1615 3735 c-535 -87 -989 -377 -1290 -825 -121 -181 -223 -426 -273
-659 -25 -117 -26 -143 -26 -371 0 -228 1 -254 26 -371 107 -496 389 -913 808
-1194 181 -121 426 -223 659 -273 117 -25 143 -26 371 -26 228 0 254 1 371 26
496 107 913 389 1194 808 121 181 223 426 273 659 25 117 26 143 26 371 0 228
-1 254 -26 371 -107 496 -389 913 -808 1194 -180 120 -427 223 -654 271 -104
22 -152 27 -341 30 -159 2 -245 -1 -310 -11z m629 -64 c729 -148 1290 -711
1438 -1443 20 -99 23 -142 23 -348 0 -206 -3 -249 -23 -348 -149 -735 -709
-1295 -1444 -1444 -99 -20 -142 -23 -348 -23 -206 0 -249 3 -348 23 -392 79
-759 288 -1014 577 -214 243 -365 547 -430 867 -20 99 -23 142 -23 348 0 206
3 249 23 348 154 763 748 1333 1517 1457 140 22 487 15 629 -14z"/>
<path d="M1845 2858 c-7 -5 -26 -9 -42 -11 -15 -2 -55 -16 -88 -30 -33 -15
-62 -26 -65 -25 -3 1 -14 -5 -25 -14 -11 -9 -40 -33 -65 -53 -61 -50 -124
-128 -158 -195 -15 -30 -31 -58 -35 -61 -5 -3 -8 -9 -7 -13 1 -4 -1 -17 -5
-29 -4 -12 -9 -38 -11 -57 -2 -19 -8 -46 -12 -60 -4 -14 -5 -283 -2 -598 l5
-572 174 100 174 101 185 -103 c102 -57 189 -104 194 -106 4 -2 8 107 8 242 0
135 3 245 8 244 4 0 14 1 22 5 42 16 126 41 133 39 4 -1 7 3 7 9 0 5 5 7 10 4
6 -3 10 -2 10 4 0 6 11 13 25 17 14 3 25 10 25 15 0 5 4 9 10 9 5 0 20 10 33
23 14 12 35 32 48 43 46 40 140 186 146 225 1 9 8 29 14 45 7 16 11 35 10 42
-1 8 2 19 7 25 12 16 7 214 -7 256 -6 19 -8 37 -6 42 3 4 1 10 -5 14 -6 4 -8
11 -5 16 4 5 2 9 -3 9 -8 0 -26 48 -23 58 1 1 -3 8 -9 15 -6 6 -25 33 -43 58
-31 45 -113 139 -121 139 -2 0 -27 15 -55 34 -28 19 -77 44 -108 56 -32 11
-65 23 -73 27 -38 15 -252 24 -275 11z"/>
<path d="M7115 2555 c-24 -23 -25 -29 -25 -165 0 -140 0 -141 -24 -150 -51
-19 -63 -94 -21 -135 13 -14 29 -25 34 -25 6 0 11 -93 13 -242 3 -236 4 -244
28 -293 31 -63 87 -103 159 -114 97 -15 150 11 151 74 0 44 -24 73 -68 81 -44
8 -73 22 -89 43 -9 11 -12 78 -13 234 l0 217 39 0 c58 0 91 30 91 84 0 54 -23
77 -85 83 l-45 6 0 122 c0 129 -10 179 -40 195 -33 18 -79 11 -105 -15z"/>
<path d="M7728 2570 c-97 -29 -149 -109 -156 -238 -4 -78 -6 -84 -32 -97 -31
-16 -40 -33 -40 -76 0 -29 37 -79 60 -79 7 0 10 -98 10 -299 0 -298 0 -300 23
-326 29 -35 89 -37 121 -6 20 21 21 31 24 326 l3 305 38 0 c55 0 91 31 91 79
0 55 -22 79 -80 87 l-50 7 0 58 c0 50 3 60 27 78 14 12 43 24 65 27 73 12 103
90 53 139 -20 21 -33 25 -77 24 -29 0 -65 -4 -80 -9z"/>
<path d="M8952 2560 c-11 -11 -24 -35 -27 -52 -3 -18 -5 -259 -3 -535 3 -494
3 -503 24 -523 36 -37 113 -28 132 16 9 18 12 174 12 545 l0 520 -25 24 c-30
31 -82 33 -113 5z"/>
<path d="M9308 2566 c-26 -19 -38 -61 -38 -132 0 -68 17 -117 45 -128 35 -13
76 -6 100 19 23 22 25 32 25 115 0 83 -2 93 -25 115 -27 28 -79 33 -107 11z"/>
<path d="M4794 2504 c-12 -3 -30 -14 -40 -26 -18 -19 -19 -47 -19 -514 0 -487
0 -494 21 -514 21 -22 62 -28 100 -16 36 11 44 48 44 206 l0 150 80 0 c194 0
324 70 388 209 23 48 27 69 26 146 0 59 -7 105 -18 134 -35 95 -123 177 -222
207 -48 15 -314 28 -360 18z m299 -175 c47 -13 106 -63 123 -106 31 -72 5
-180 -52 -220 -47 -32 -92 -43 -180 -43 l-84 0 0 190 0 190 78 0 c42 0 94 -5
115 -11z"/>
<path d="M5762 2252 c-199 -71 -321 -270 -291 -477 19 -136 117 -267 246 -328
64 -30 74 -32 183 -32 111 0 117 1 183 34 218 110 308 359 205 572 -46 96
-111 161 -208 208 -68 33 -84 36 -170 39 -72 2 -108 -2 -148 -16z m255 -178
c91 -43 142 -128 143 -240 1 -145 -114 -257 -265 -256 -75 1 -119 18 -175 68
-49 44 -66 75 -81 143 -37 172 115 335 291 313 19 -2 58 -15 87 -28z"/>
<path d="M8212 2252 c-199 -71 -321 -270 -291 -477 19 -136 117 -267 246 -328
64 -30 74 -32 183 -32 111 0 117 1 183 34 218 110 308 359 205 572 -46 96
-111 161 -208 208 -68 33 -84 36 -170 39 -72 2 -108 -2 -148 -16z m255 -178
c91 -43 142 -128 143 -240 1 -145 -114 -257 -265 -256 -75 1 -119 18 -175 68
-49 44 -66 75 -81 143 -37 172 115 335 291 313 19 -2 58 -15 87 -28z"/>
<path d="M9892 2252 c-199 -71 -321 -270 -291 -477 19 -136 117 -267 246 -328
64 -30 74 -32 183 -32 111 0 117 1 183 34 218 110 308 359 205 572 -46 96
-111 161 -208 208 -68 33 -84 36 -170 39 -72 2 -108 -2 -148 -16z m255 -178
c91 -43 142 -128 143 -240 1 -145 -114 -257 -265 -256 -75 1 -119 18 -175 68
-49 44 -66 75 -81 143 -37 172 115 335 291 313 19 -2 58 -15 87 -28z"/>
<path d="M6815 2255 c-5 -2 -27 -6 -47 -10 -21 -3 -57 -21 -82 -40 l-44 -34
-6 24 c-9 37 -34 55 -75 55 -26 0 -44 -7 -57 -21 -18 -20 -19 -41 -19 -390 0
-355 1 -369 20 -388 33 -32 94 -32 124 0 18 20 20 39 23 273 3 226 5 254 22
283 26 42 78 70 156 82 38 6 72 18 83 30 25 25 25 87 0 113 -18 18 -76 32 -98
23z"/>
<path d="M9299 2201 l-24 -19 0 -356 c0 -347 0 -356 21 -376 36 -37 113 -28
132 16 8 17 12 129 12 363 0 327 -1 339 -21 365 -26 32 -84 36 -120 7z"/>
</g>
</svg>
